<mxfile host="app.diagrams.net" agent="Mozilla/5.0 (Windows NT 10.0; Win64; x64) AppleWebKit/537.36 (KHTML, like Gecko) Chrome/137.0.0.0 Safari/537.36" version="27.1.6">
  <diagram name="Page-1" id="UVEQF3p3zSJeDYMQPOL3">
    <mxGraphModel dx="1426" dy="743" grid="1" gridSize="10" guides="1" tooltips="1" connect="1" arrows="1" fold="1" page="1" pageScale="1" pageWidth="850" pageHeight="1100" math="0" shadow="0">
      <root>
        <mxCell id="0" />
        <mxCell id="1" parent="0" />
        <mxCell id="U4UBjQhWLuVe9Pn6fNAk-27" style="edgeStyle=orthogonalEdgeStyle;rounded=0;orthogonalLoop=1;jettySize=auto;html=1;entryX=0;entryY=0.5;entryDx=0;entryDy=0;" edge="1" parent="1" source="U4UBjQhWLuVe9Pn6fNAk-1" target="U4UBjQhWLuVe9Pn6fNAk-6">
          <mxGeometry relative="1" as="geometry" />
        </mxCell>
        <mxCell id="U4UBjQhWLuVe9Pn6fNAk-28" style="edgeStyle=orthogonalEdgeStyle;rounded=0;orthogonalLoop=1;jettySize=auto;html=1;" edge="1" parent="1" source="U4UBjQhWLuVe9Pn6fNAk-1" target="U4UBjQhWLuVe9Pn6fNAk-8">
          <mxGeometry relative="1" as="geometry" />
        </mxCell>
        <mxCell id="U4UBjQhWLuVe9Pn6fNAk-29" style="edgeStyle=orthogonalEdgeStyle;rounded=0;orthogonalLoop=1;jettySize=auto;html=1;entryX=0;entryY=0.5;entryDx=0;entryDy=0;" edge="1" parent="1" source="U4UBjQhWLuVe9Pn6fNAk-1" target="U4UBjQhWLuVe9Pn6fNAk-9">
          <mxGeometry relative="1" as="geometry" />
        </mxCell>
        <mxCell id="U4UBjQhWLuVe9Pn6fNAk-30" style="edgeStyle=orthogonalEdgeStyle;rounded=0;orthogonalLoop=1;jettySize=auto;html=1;entryX=0;entryY=0.5;entryDx=0;entryDy=0;" edge="1" parent="1" source="U4UBjQhWLuVe9Pn6fNAk-1" target="U4UBjQhWLuVe9Pn6fNAk-10">
          <mxGeometry relative="1" as="geometry" />
        </mxCell>
        <mxCell id="U4UBjQhWLuVe9Pn6fNAk-1" value="Guest" style="shape=umlActor;verticalLabelPosition=bottom;verticalAlign=top;html=1;outlineConnect=0;labelBorderColor=none;" vertex="1" parent="1">
          <mxGeometry x="140" y="180" width="30" height="60" as="geometry" />
        </mxCell>
        <mxCell id="U4UBjQhWLuVe9Pn6fNAk-6" value="" style="ellipse;whiteSpace=wrap;html=1;" vertex="1" parent="1">
          <mxGeometry x="250" y="70" width="120" height="50" as="geometry" />
        </mxCell>
        <mxCell id="U4UBjQhWLuVe9Pn6fNAk-7" value="Search Bookings" style="text;html=1;align=center;verticalAlign=middle;whiteSpace=wrap;rounded=0;" vertex="1" parent="1">
          <mxGeometry x="280" y="80" width="60" height="30" as="geometry" />
        </mxCell>
        <mxCell id="U4UBjQhWLuVe9Pn6fNAk-8" value="" style="ellipse;whiteSpace=wrap;html=1;" vertex="1" parent="1">
          <mxGeometry x="250" y="160" width="120" height="50" as="geometry" />
        </mxCell>
        <mxCell id="U4UBjQhWLuVe9Pn6fNAk-9" value="" style="ellipse;whiteSpace=wrap;html=1;" vertex="1" parent="1">
          <mxGeometry x="250" y="250" width="120" height="50" as="geometry" />
        </mxCell>
        <mxCell id="U4UBjQhWLuVe9Pn6fNAk-10" value="" style="ellipse;whiteSpace=wrap;html=1;" vertex="1" parent="1">
          <mxGeometry x="250" y="330" width="120" height="50" as="geometry" />
        </mxCell>
        <mxCell id="U4UBjQhWLuVe9Pn6fNAk-12" value="Make Payments" style="text;html=1;align=center;verticalAlign=middle;whiteSpace=wrap;rounded=0;" vertex="1" parent="1">
          <mxGeometry x="280" y="260" width="60" height="30" as="geometry" />
        </mxCell>
        <mxCell id="U4UBjQhWLuVe9Pn6fNAk-13" value="Checkout" style="text;html=1;align=center;verticalAlign=middle;whiteSpace=wrap;rounded=0;" vertex="1" parent="1">
          <mxGeometry x="280" y="340" width="60" height="30" as="geometry" />
        </mxCell>
        <mxCell id="U4UBjQhWLuVe9Pn6fNAk-14" value="View Bookings" style="text;html=1;align=center;verticalAlign=middle;whiteSpace=wrap;rounded=0;" vertex="1" parent="1">
          <mxGeometry x="280" y="170" width="60" height="30" as="geometry" />
        </mxCell>
        <mxCell id="U4UBjQhWLuVe9Pn6fNAk-34" style="edgeStyle=orthogonalEdgeStyle;rounded=0;orthogonalLoop=1;jettySize=auto;html=1;entryX=1;entryY=0.5;entryDx=0;entryDy=0;" edge="1" parent="1" source="U4UBjQhWLuVe9Pn6fNAk-18" target="U4UBjQhWLuVe9Pn6fNAk-31">
          <mxGeometry relative="1" as="geometry" />
        </mxCell>
        <mxCell id="U4UBjQhWLuVe9Pn6fNAk-36" style="edgeStyle=orthogonalEdgeStyle;rounded=0;orthogonalLoop=1;jettySize=auto;html=1;entryX=1;entryY=0.5;entryDx=0;entryDy=0;" edge="1" parent="1" source="U4UBjQhWLuVe9Pn6fNAk-18" target="U4UBjQhWLuVe9Pn6fNAk-32">
          <mxGeometry relative="1" as="geometry" />
        </mxCell>
        <mxCell id="U4UBjQhWLuVe9Pn6fNAk-37" style="edgeStyle=orthogonalEdgeStyle;rounded=0;orthogonalLoop=1;jettySize=auto;html=1;entryX=1;entryY=0.5;entryDx=0;entryDy=0;" edge="1" parent="1" source="U4UBjQhWLuVe9Pn6fNAk-18" target="U4UBjQhWLuVe9Pn6fNAk-33">
          <mxGeometry relative="1" as="geometry" />
        </mxCell>
        <object label="Host" id="U4UBjQhWLuVe9Pn6fNAk-18">
          <mxCell style="shape=umlActor;verticalLabelPosition=bottom;verticalAlign=top;html=1;outlineConnect=0;labelBorderColor=none;" vertex="1" parent="1">
            <mxGeometry x="720" y="180" width="30" height="60" as="geometry" />
          </mxCell>
        </object>
        <mxCell id="U4UBjQhWLuVe9Pn6fNAk-31" value="" style="ellipse;whiteSpace=wrap;html=1;" vertex="1" parent="1">
          <mxGeometry x="560" y="120" width="120" height="50" as="geometry" />
        </mxCell>
        <mxCell id="U4UBjQhWLuVe9Pn6fNAk-32" value="" style="ellipse;whiteSpace=wrap;html=1;" vertex="1" parent="1">
          <mxGeometry x="560" y="200" width="120" height="50" as="geometry" />
        </mxCell>
        <mxCell id="U4UBjQhWLuVe9Pn6fNAk-33" value="" style="ellipse;whiteSpace=wrap;html=1;" vertex="1" parent="1">
          <mxGeometry x="560" y="290" width="120" height="50" as="geometry" />
        </mxCell>
        <mxCell id="U4UBjQhWLuVe9Pn6fNAk-38" value="Receive Payments" style="text;html=1;align=center;verticalAlign=middle;whiteSpace=wrap;rounded=0;" vertex="1" parent="1">
          <mxGeometry x="590" y="130" width="60" height="30" as="geometry" />
        </mxCell>
        <mxCell id="U4UBjQhWLuVe9Pn6fNAk-39" value="Manage Bookings" style="text;html=1;align=center;verticalAlign=middle;whiteSpace=wrap;rounded=0;" vertex="1" parent="1">
          <mxGeometry x="590" y="210" width="60" height="30" as="geometry" />
        </mxCell>
        <mxCell id="U4UBjQhWLuVe9Pn6fNAk-40" value="Manage Reservations" style="text;html=1;align=center;verticalAlign=middle;whiteSpace=wrap;rounded=0;" vertex="1" parent="1">
          <mxGeometry x="590" y="300" width="60" height="30" as="geometry" />
        </mxCell>
      </root>
    </mxGraphModel>
  </diagram>
</mxfile>
